# xmcd CD database file
#
# Track frame offsets:
#	150
#	19740
#	34469
#	52723
#	70327
#	85040
#	100882
#	119773
#	134429
#	148872
#	162763
#	179351
#
# Disc length: 2619 seconds
#
# Revision: 0
# Processed by: cddbd v1.5.2PL0 Copyright (c) Steve Scherf et al.
# Submitted via: CDex 1.70beta2
#
DISCID=a70a390c
DTITLE=Halyards - Fortune Smiles
DYEAR=2010
DGENRE=Blues
TTITLE0=Welcome Home
TTITLE1=Marley's Lament
TTITLE2=Earthbound
TTITLE3=Lost In Mexico
TTITLE4=Another Night's Distraction
TTITLE5=Best Kept Secret
TTITLE6=He's Walking By
TTITLE7=The Streets Of Laredo
TTITLE8=Delicate Touch
TTITLE9=It's Over Now
TTITLE10=Fortune Smiles
TTITLE11=Heron Cove
EXTD=YEAR: 2010
EXTT0=
EXTT1=
EXTT2=
EXTT3=
EXTT4=
EXTT5=
EXTT6=
EXTT7=
EXTT8=
EXTT9=
EXTT10=
EXTT11=
PLAYORDER=
